<?xml version="1.0" standalone="no"?><svg xmlns="http://www.w3.org/2000/svg" viewBox="0 0 1440 320"><path fill="#0099ff" fill-opacity="1" d="M0,160L10.4,181.3C20.9,203,42,245,63,250.7C83.5,256,104,224,125,186.7C146.1,149,167,107,188,117.3C208.7,128,230,192,250,218.7C271.3,245,292,235,313,213.3C333.9,192,355,160,376,144C396.5,128,417,128,438,128C459.1,128,480,128,501,154.7C521.7,181,543,235,563,245.3C584.3,256,605,224,626,186.7C647,149,668,107,689,128C709.6,149,730,235,751,261.3C772.2,288,793,256,814,229.3C834.8,203,856,181,877,192C897.4,203,918,245,939,261.3C960,277,981,267,1002,245.3C1022.6,224,1043,192,1064,160C1085.2,128,1106,96,1127,106.7C1147.8,117,1169,171,1190,202.7C1210.4,235,1231,245,1252,256C1273,267,1294,277,1315,282.7C1335.7,288,1357,288,1377,261.3C1398.3,235,1419,181,1430,154.7L1440,128L1440,0L1429.6,0C1419.1,0,1398,0,1377,0C1356.5,0,1336,0,1315,0C1293.9,0,1273,0,1252,0C1231.3,0,1210,0,1190,0C1168.7,0,1148,0,1127,0C1106.1,0,1085,0,1064,0C1043.5,0,1023,0,1002,0C980.9,0,960,0,939,0C918.3,0,897,0,877,0C855.7,0,835,0,814,0C793,0,772,0,751,0C730.4,0,710,0,689,0C667.8,0,647,0,626,0C605.2,0,584,0,563,0C542.6,0,522,0,501,0C480,0,459,0,438,0C417.4,0,397,0,376,0C354.8,0,334,0,313,0C292.2,0,271,0,250,0C229.6,0,209,0,188,0C167,0,146,0,125,0C104.3,0,83,0,63,0C41.7,0,21,0,10,0L0,0Z"></path></svg>