<?xml version="1.0" standalone="no"?><svg xmlns="http://www.w3.org/2000/svg" viewBox="0 0 1440 320"><path fill="#ffd700" fill-opacity="1" d="M0,96L13.3,122.7C26.7,149,53,203,80,208C106.7,213,133,171,160,181.3C186.7,192,213,256,240,250.7C266.7,245,293,171,320,165.3C346.7,160,373,224,400,245.3C426.7,267,453,245,480,224C506.7,203,533,181,560,165.3C586.7,149,613,139,640,160C666.7,181,693,235,720,240C746.7,245,773,203,800,208C826.7,213,853,267,880,245.3C906.7,224,933,128,960,112C986.7,96,1013,160,1040,202.7C1066.7,245,1093,267,1120,234.7C1146.7,203,1173,117,1200,85.3C1226.7,53,1253,75,1280,106.7C1306.7,139,1333,181,1360,192C1386.7,203,1413,181,1427,170.7L1440,160L1440,0L1426.7,0C1413.3,0,1387,0,1360,0C1333.3,0,1307,0,1280,0C1253.3,0,1227,0,1200,0C1173.3,0,1147,0,1120,0C1093.3,0,1067,0,1040,0C1013.3,0,987,0,960,0C933.3,0,907,0,880,0C853.3,0,827,0,800,0C773.3,0,747,0,720,0C693.3,0,667,0,640,0C613.3,0,587,0,560,0C533.3,0,507,0,480,0C453.3,0,427,0,400,0C373.3,0,347,0,320,0C293.3,0,267,0,240,0C213.3,0,187,0,160,0C133.3,0,107,0,80,0C53.3,0,27,0,13,0L0,0Z"></path></svg>